<?xml version="1.0" encoding="UTF-8" standalone="no"?>
<svg
   viewBox="0 0 512 512"
   version="1.1"
   id="svg1"
   sodipodi:docname="headset-solid.svg"
   inkscape:version="1.4 (e7c3feb100, 2024-10-09)"
   xmlns:inkscape="http://www.inkscape.org/namespaces/inkscape"
   xmlns:sodipodi="http://sodipodi.sourceforge.net/DTD/sodipodi-0.dtd"
   xmlns="http://www.w3.org/2000/svg"
   xmlns:svg="http://www.w3.org/2000/svg">
  <defs
     id="defs1" />
  <sodipodi:namedview
     id="namedview1"
     pagecolor="#ffffff"
     bordercolor="#000000"
     borderopacity="0.25"
     inkscape:showpageshadow="2"
     inkscape:pageopacity="0.0"
     inkscape:pagecheckerboard="0"
     inkscape:deskcolor="#d1d1d1"
     inkscape:zoom="1.078125"
     inkscape:cx="254.6087"
     inkscape:cy="256"
     inkscape:window-width="1366"
     inkscape:window-height="761"
     inkscape:window-x="0"
     inkscape:window-y="0"
     inkscape:window-maximized="1"
     inkscape:current-layer="svg1" />
  <!--!Font Awesome Free 6.7.2 by @fontawesome - https://fontawesome.com License - https://fontawesome.com/license/free Copyright 2025 Fonticons, Inc.-->
  <path
     d="M256 48C141.1 48 48 141.1 48 256l0 40c0 13.3-10.7 24-24 24s-24-10.7-24-24l0-40C0 114.6 114.6 0 256 0S512 114.6 512 256l0 144.1c0 48.6-39.4 88-88.1 88L313.6 488c-8.3 14.3-23.8 24-41.6 24l-32 0c-26.5 0-48-21.5-48-48s21.5-48 48-48l32 0c17.8 0 33.3 9.7 41.6 24l110.4 .1c22.1 0 40-17.9 40-40L464 256c0-114.9-93.1-208-208-208zM144 208l16 0c17.7 0 32 14.3 32 32l0 112c0 17.7-14.3 32-32 32l-16 0c-35.3 0-64-28.7-64-64l0-48c0-35.3 28.7-64 64-64zm224 0c35.3 0 64 28.7 64 64l0 48c0 35.3-28.7 64-64 64l-16 0c-17.7 0-32-14.3-32-32l0-112c0-17.7 14.3-32 32-32l16 0z"
     id="path1"
     style="fill:#7e61c2;fill-opacity:1" />
</svg>
